<svg width="600" height="400" viewBox="0 0 600 400" xmlns="http://www.w3.org/2000/svg">
      <defs>
        <linearGradient id="dressGrad" x1="0%" y1="0%" x2="100%" y2="100%">
          <stop offset="0%" style="stop-color:#DC2626;stop-opacity:1" />
          <stop offset="100%" style="stop-color:#991B1B;stop-opacity:1" />
        </linearGradient>
        <pattern id="traditional" patternUnits="userSpaceOnUse" width="20" height="20">
          <rect width="20" height="20" fill="#FCD34D"/>
          <circle cx="10" cy="10" r="3" fill="#DC2626"/>
        </pattern>
      </defs>
      <rect width="600" height="400" fill="#F9FAFB"/>
      <path d="M200 80 L400 80 L420 120 L420 320 L180 320 L180 120 Z" fill="url(#dressGrad)"/>
      <path d="M220 100 L380 100 L390 140 L210 140 Z" fill="url(#traditional)"/>
      <rect x="285" y="80" width="30" height="20" rx="5" fill="#FCD34D"/>
      <circle cx="240" r="5" cy="160" fill="#FCD34D"/>
      <circle cx="260" r="5" cy="160" fill="#FCD34D"/>
      <circle cx="280" r="5" cy="160" fill="#FCD34D"/>
      <circle cx="320" r="5" cy="160" fill="#FCD34D"/>
      <circle cx="340" r="5" cy="160" fill="#FCD34D"/>
      <circle cx="360" r="5" cy="160" fill="#FCD34D"/>
      <text x="300" y="370" text-anchor="middle" fill="#1F2937" font-family="Arial, sans-serif" font-size="18" font-weight="bold">Traditional Habesha Kemis</text>
    </svg>