<svg width="800" height="600" xmlns="http://www.w3.org/2000/svg">
        <rect width="800" height="600" fill="#87CEEB"/>
        <rect y="300" width="800" height="300" fill="#228B22"/>
        <!-- Tractor -->
        <rect x="100" y="200" width="120" height="60" fill="#FF4500"/>
        <circle cx="130" cy="270" r="20" fill="#000"/>
        <circle cx="190" cy="270" r="20" fill="#000"/>
        <rect x="220" y="220" width="40" height="40" fill="#FF4500"/>
        <!-- Combine harvester -->
        <rect x="400" y="180" width="180" height="80" fill="#FFD700"/>
        <circle cx="440" cy="270" r="25" fill="#000"/>
        <circle cx="540" cy="270" r="25" fill="#000"/>
        <rect x="580" y="200" width="60" height="60" fill="#FFD700"/>
        <!-- Irrigation system -->
        <rect x="100" y="400" width="200" height="20" fill="#4169E1"/>
        <rect x="150" y="380" width="10" height="40" fill="#4169E1"/>
        <rect x="200" y="380" width="10" height="40" fill="#4169E1"/>
        <rect x="250" y="380" width="10" height="40" fill="#4169E1"/>
        <!-- Crops -->
        <rect x="50" y="500" width="5" height="30" fill="#32CD32"/>
        <rect x="80" y="500" width="5" height="30" fill="#32CD32"/>
        <rect x="110" y="500" width="5" height="30" fill="#32CD32"/>
        <rect x="140" y="500" width="5" height="30" fill="#32CD32"/>
        <text x="400" y="50" font-family="Arial" font-size="24" fill="#000">Agricultural Mechanization Equipment</text>
        <text x="400" y="80" font-family="Arial" font-size="16" fill="#333">Smallholder Farmer Support Program</text>
      </svg>