<svg width="800" height="600" xmlns="http://www.w3.org/2000/svg">
        <rect width="800" height="600" fill="#F0F8FF"/>
        <!-- Computer screens -->
        <rect x="100" y="200" width="120" height="80" fill="#000"/>
        <rect x="110" y="210" width="100" height="60" fill="#4169E1"/>
        <rect x="250" y="200" width="120" height="80" fill="#000"/>
        <rect x="260" y="210" width="100" height="60" fill="#4169E1"/>
        <rect x="400" y="200" width="120" height="80" fill="#000"/>
        <rect x="410" y="210" width="100" height="60" fill="#4169E1"/>
        <rect x="550" y="200" width="120" height="80" fill="#000"/>
        <rect x="560" y="210" width="100" height="60" fill="#4169E1"/>
        <!-- Mobile devices -->
        <rect x="150" y="350" width="60" height="100" fill="#000" rx="10"/>
        <rect x="160" y="360" width="40" height="80" fill="#4169E1"/>
        <rect x="300" y="350" width="60" height="100" fill="#000" rx="10"/>
        <rect x="310" y="360" width="40" height="80" fill="#4169E1"/>
        <rect x="450" y="350" width="60" height="100" fill="#000" rx="10"/>
        <rect x="460" y="360" width="40" height="80" fill="#4169E1"/>
        <!-- Network connections -->
        <line x1="160" y1="240" x2="310" y2="240" stroke="#32CD32" stroke-width="3"/>
        <line x1="310" y1="240" x2="460" y2="240" stroke="#32CD32" stroke-width="3"/>
        <line x1="460" y1="240" x2="610" y2="240" stroke="#32CD32" stroke-width="3"/>
        <text x="400" y="50" font-family="Arial" font-size="24" fill="#000">Educational Technology Platform</text>
        <text x="400" y="80" font-family="Arial" font-size="16" fill="#333">E-Learning System for Ethiopian Universities</text>
      </svg>