<svg width="800" height="600" xmlns="http://www.w3.org/2000/svg">
        <rect width="800" height="600" fill="#F5F5F5"/>
        <!-- Server racks -->
        <rect x="100" y="150" width="80" height="120" fill="#2F4F4F" stroke="#000"/>
        <rect x="110" y="160" width="60" height="15" fill="#00FF00"/>
        <rect x="110" y="180" width="60" height="15" fill="#00FF00"/>
        <rect x="110" y="200" width="60" height="15" fill="#FFFF00"/>
        <rect x="110" y="220" width="60" height="15" fill="#00FF00"/>
        <rect x="110" y="240" width="60" height="15" fill="#00FF00"/>
        <!-- Computers -->
        <rect x="250" y="200" width="100" height="60" fill="#000"/>
        <rect x="260" y="210" width="80" height="50" fill="#4169E1"/>
        <rect x="370" y="200" width="100" height="60" fill="#000"/>
        <rect x="380" y="210" width="80" height="50" fill="#4169E1"/>
        <!-- Network equipment -->
        <rect x="500" y="180" width="120" height="40" fill="#696969"/>
        <circle cx="520" cy="200" r="5" fill="#00FF00"/>
        <circle cx="540" cy="200" r="5" fill="#00FF00"/>
        <circle cx="560" cy="200" r="5" fill="#FFFF00"/>
        <circle cx="580" cy="200" r="5" fill="#00FF00"/>
        <text x="400" y="50" font-family="Arial" font-size="24" fill="#000">IT Infrastructure Modernization</text>
        <text x="400" y="80" font-family="Arial" font-size="16" fill="#333">Government Offices - Addis Ababa</text>
      </svg>