<svg width="800" height="600" xmlns="http://www.w3.org/2000/svg">
        <rect width="800" height="600" fill="#87CEEB"/>
        <!-- Water treatment plant -->
        <rect x="100" y="200" width="200" height="100" fill="#C0C0C0" stroke="#000"/>
        <rect x="120" y="180" width="40" height="40" fill="#4169E1"/>
        <rect x="180" y="180" width="40" height="40" fill="#4169E1"/>
        <rect x="240" y="180" width="40" height="40" fill="#4169E1"/>
        <!-- Pipelines -->
        <rect x="300" y="240" width="200" height="20" fill="#8B4513"/>
        <rect x="500" y="240" width="200" height="20" fill="#8B4513"/>
        <!-- Water tanks -->
        <circle cx="550" cy="180" r="40" fill="#4682B4" stroke="#000" stroke-width="2"/>
        <circle cx="650" cy="180" r="40" fill="#4682B4" stroke="#000" stroke-width="2"/>
        <!-- Houses -->
        <rect x="100" y="400" width="60" height="60" fill="#DEB887"/>
        <polygon points="100,400 130,370 160,400" fill="#8B4513"/>
        <rect x="200" y="400" width="60" height="60" fill="#DEB887"/>
        <polygon points="200,400 230,370 260,400" fill="#8B4513"/>
        <rect x="300" y="400" width="60" height="60" fill="#DEB887"/>
        <polygon points="300,400 330,370 360,400" fill="#8B4513"/>
        <text x="400" y="50" font-family="Arial" font-size="24" fill="#000">Water Supply System Expansion</text>
        <text x="400" y="80" font-family="Arial" font-size="16" fill="#333">Hawassa City Infrastructure</text>
      </svg>